<svg width="20" height="20" viewBox="0 0 20 20" fill="none" xmlns="http://www.w3.org/2000/svg">
<path fill-rule="evenodd" clip-rule="evenodd" d="M4.4443 1.6853C2.79981 2.78412 1.51809 4.3459 0.761209 6.17316C0.00433283 8.00042 -0.1937 10.0111 0.192152 11.9509C0.578004 13.8907 1.53041 15.6725 2.92894 17.0711C4.32746 18.4696 6.10929 19.422 8.0491 19.8078C9.98891 20.1937 11.9996 19.9957 13.8268 19.2388C15.6541 18.4819 17.2159 17.2002 18.3147 15.5557C19.4135 13.9112 20 11.9778 20 10C19.9972 7.34869 18.9427 4.80678 17.068 2.93202C15.1932 1.05727 12.6513 0.00279983 10 0C8.02219 0 6.08879 0.58649 4.4443 1.6853ZM9.00577 14.3904C8.9343 14.4619 8.84946 14.5185 8.75608 14.5572C8.6627 14.5959 8.56261 14.6158 8.46154 14.6158C8.36047 14.6158 8.26038 14.5959 8.16701 14.5572C8.07363 14.5185 7.98878 14.4619 7.91731 14.3904C7.84584 14.3189 7.78915 14.2341 7.75047 14.1407C7.71179 14.0473 7.69188 13.9472 7.69188 13.8462C7.69188 13.7451 7.71179 13.645 7.75047 13.5516C7.78915 13.4582 7.84584 13.3734 7.91731 13.3019L11.2202 10L7.91731 6.69808C7.77297 6.55374 7.69188 6.35797 7.69188 6.15384C7.69188 5.94972 7.77297 5.75395 7.91731 5.60961C8.06165 5.46527 8.25741 5.38419 8.46154 5.38419C8.66567 5.38419 8.86143 5.46527 9.00577 5.60961L12.8519 9.45577C12.9234 9.52721 12.9802 9.61205 13.0189 9.70543C13.0576 9.79881 13.0775 9.89891 13.0775 10C13.0775 10.1011 13.0576 10.2012 13.0189 10.2946C12.9802 10.3879 12.9234 10.4728 12.8519 10.5442L9.00577 14.3904Z" fill="#824DEB"/>
</svg>
