<svg width="156" height="32" viewBox="0 0 156 32" fill="none" xmlns="http://www.w3.org/2000/svg">
<g clip-path="url(#clip0_16_6416)">
<path fill-rule="evenodd" clip-rule="evenodd" d="M27.3564 6.9793L20.5 3.02075L17.0239 9.04148L23.9042 20.9586H30.8564V13.0415H23.8564L27.3564 6.9793ZM23.8803 21H10.1196L6.64355 27.0208L13.5 30.9793L17 24.9171L20.5 30.9793L27.3564 27.0208L23.8803 21ZM10.0957 20.9586L16.976 9.04148L13.5 3.02075L6.64355 6.9793L10.1436 13.0415H3.14355V20.9586H10.0957Z" fill="#824DEB"/>
<path fill-rule="evenodd" clip-rule="evenodd" d="M27.3569 6.9793L20.5005 3.02075L17.0244 9.04148L21.5859 16.9422L23.8569 13.0415L27.3569 6.9793Z" fill="#F7A7E9"/>
<path d="M41.464 26V9.68H46.528L50.08 19.328L50.776 21.752L51.472 19.328L55.024 9.68H59.944V26H56.104L56.32 13.976L55.072 18.032L52.096 26H49.312L46.312 17.984L45.088 14L45.304 26H41.464ZM66.2464 17.36H62.5744C62.9584 14.456 65.1904 12.68 68.5024 12.68C72.1984 12.68 74.1184 14.84 74.1184 17.84V22.784C74.1184 24.464 74.2624 25.328 74.4784 26H70.6864C70.5664 25.568 70.4944 25.016 70.4704 24.392C69.4624 25.784 67.9264 26.384 66.3904 26.384C63.9424 26.384 62.1184 25.136 62.1184 22.664C62.1184 20.912 63.1264 19.568 65.1664 18.848C66.8464 18.296 68.4544 18.128 70.4464 18.104V17.816C70.4464 16.4 69.7504 15.656 68.3344 15.656C67.0864 15.656 66.4144 16.352 66.2464 17.36ZM65.7904 22.424C65.7904 23.288 66.4384 23.84 67.5184 23.84C69.1504 23.84 70.4464 22.52 70.4464 20.744V20.24C66.7264 20.312 65.7904 21.224 65.7904 22.424ZM88.2524 17.744H84.5804C84.3404 16.232 83.4764 15.656 82.4204 15.656C80.7884 15.656 79.9484 17.024 79.9484 19.544C79.9484 22.04 80.8364 23.408 82.5164 23.408C83.6204 23.408 84.3884 22.784 84.6524 21.584H88.3244C87.7724 24.824 85.4444 26.384 82.4444 26.384C78.5804 26.384 76.1804 23.768 76.1804 19.544C76.1804 15.152 78.6284 12.68 82.4204 12.68C85.4204 12.68 87.7964 14.36 88.2524 17.744ZM90.1855 26V13.088H93.8575V14.888C94.6735 13.352 95.9215 12.68 97.2415 12.68C97.7695 12.68 98.2495 12.824 98.5135 13.088V16.184C98.0815 16.088 97.6255 16.04 97.0495 16.04C94.8415 16.04 93.8575 17.288 93.8575 19.328V26H90.1855ZM99.9824 11.792V8.72H103.654V11.792H99.9824ZM99.9824 26V13.088H103.654V26H99.9824ZM109.483 26L104.923 13.088H108.883L111.499 21.632L111.835 23.192L112.171 21.632L114.811 13.088H118.579L114.019 26H109.483ZM123.27 17.36H119.598C119.982 14.456 122.214 12.68 125.526 12.68C129.222 12.68 131.142 14.84 131.142 17.84V22.784C131.142 24.464 131.286 25.328 131.502 26H127.71C127.59 25.568 127.518 25.016 127.494 24.392C126.486 25.784 124.95 26.384 123.414 26.384C120.966 26.384 119.142 25.136 119.142 22.664C119.142 20.912 120.15 19.568 122.19 18.848C123.87 18.296 125.478 18.128 127.47 18.104V17.816C127.47 16.4 126.774 15.656 125.358 15.656C124.11 15.656 123.438 16.352 123.27 17.36ZM122.814 22.424C122.814 23.288 123.462 23.84 124.542 23.84C126.174 23.84 127.47 22.52 127.47 20.744V20.24C123.75 20.312 122.814 21.224 122.814 22.424ZM134.236 21.8V15.872H132.652V13.088H134.236V10.088H137.908V13.088H140.548V15.872H137.908V21.344C137.908 22.592 138.244 23.288 139.828 23.288H140.524V26.048C140.116 26.24 139.3 26.384 138.316 26.384C135.556 26.384 134.236 24.8 134.236 21.8ZM154.361 21.752C153.689 24.728 151.289 26.384 148.121 26.384C144.113 26.384 141.641 23.792 141.641 19.544C141.641 15.152 144.137 12.68 147.977 12.68C151.841 12.68 154.265 15.248 154.265 19.472V20.288H145.385C145.577 22.352 146.537 23.456 148.121 23.456C149.321 23.456 150.137 22.928 150.521 21.752H154.361ZM147.977 15.608C146.609 15.608 145.745 16.496 145.457 18.176H150.473C150.185 16.496 149.321 15.608 147.977 15.608Z" fill="white"/>
</g>
<defs>
<clipPath id="clip0_16_6416">
<rect width="156" height="32" fill="white"/>
</clipPath>
</defs>
</svg>
