<svg width="155" height="32" viewBox="0 0 155 32" fill="none" xmlns="http://www.w3.org/2000/svg">
<path fill-rule="evenodd" clip-rule="evenodd" d="M99.9999 10.7922H103.672V7.72021H99.9999V10.7922ZM41.4639 25.0002H45.3039L45.0879 13.0002L46.3119 16.9842L49.3119 25.0002H52.0959L55.0719 17.0322L56.3199 12.9762L56.1039 25.0002H59.9439V8.68021H55.0239L51.4719 18.3282L50.7759 20.7522L50.0799 18.3282L46.5279 8.68021H41.4639V25.0002ZM66.2559 16.3602C66.4239 15.3522 67.0959 14.6562 68.3439 14.6562C69.7599 14.6562 70.4559 15.4002 70.4559 16.8162V17.1042C68.4639 17.1282 66.8559 17.2962 65.1759 17.8482C63.1359 18.5682 62.1279 19.9122 62.1279 21.6642C62.1279 24.1362 63.9519 25.3842 66.3999 25.3842C67.9359 25.3842 69.4719 24.7842 70.4799 23.3922C70.5039 24.0162 70.5759 24.5682 70.6959 25.0002H74.4879C74.2854 24.3702 74.1461 23.5715 74.1295 22.0898L74.1279 16.8402C74.1279 13.8402 72.2079 11.6802 68.5119 11.6802C65.1999 11.6802 62.9679 13.4562 62.5839 16.3602H66.2559ZM70.4559 19.2402C66.7359 19.3122 65.7999 20.2242 65.7999 21.4242C65.7999 22.2882 66.4479 22.8402 67.5279 22.8402C69.1599 22.8402 70.4559 21.5202 70.4559 19.7442V19.2402ZM88.2639 16.7442C87.8079 13.3602 85.4319 11.6802 82.4319 11.6802C78.6399 11.6802 76.1919 14.1522 76.1919 18.5442C76.1919 22.7682 78.5919 25.3842 82.4559 25.3842C85.4559 25.3842 87.7839 23.8242 88.3359 20.5842H84.6639C84.3999 21.7842 83.6319 22.4082 82.5279 22.4082C80.8479 22.4082 79.9599 21.0402 79.9599 18.5442C79.9599 16.0242 80.7999 14.6562 82.4319 14.6562C83.4879 14.6562 84.3519 15.2322 84.5919 16.7442H88.2639ZM93.8799 25.0002H90.2079V12.0882H93.8799V13.8882C94.6959 12.3522 95.9439 11.6802 97.2639 11.6802C97.7919 11.6802 98.2719 11.8242 98.5359 12.0882V15.1842C98.1039 15.0882 97.6479 15.0402 97.0719 15.0402C94.8639 15.0402 93.8799 16.2882 93.8799 18.3282V25.0002ZM103.672 25.0002H99.9999V12.0882H103.672V25.0002ZM109.504 25.0002H114.04L118.6 12.0882H114.832L112.192 20.6322L111.856 22.1922L111.52 20.6322L108.904 12.0882H104.944L109.504 25.0002ZM125.584 14.6562C124.336 14.6562 123.664 15.3522 123.496 16.3602H119.824C120.208 13.4562 122.44 11.6802 125.752 11.6802C129.448 11.6802 131.368 13.8402 131.368 16.8402V21.7842C131.368 23.2542 131.478 24.0995 131.65 24.738L131.728 25.0002H127.936C127.816 24.5682 127.744 24.0162 127.72 23.3922C126.712 24.7842 125.176 25.3842 123.64 25.3842C121.192 25.3842 119.368 24.1362 119.368 21.6642C119.368 19.9122 120.376 18.5682 122.416 17.8482C124.096 17.2962 125.704 17.1282 127.696 17.1042V16.8162C127.696 15.4002 127 14.6562 125.584 14.6562ZM123.04 21.4242C123.04 20.2242 123.976 19.3122 127.696 19.2402V19.7442C127.696 21.5202 126.4 22.8402 124.768 22.8402C123.688 22.8402 123.04 22.2882 123.04 21.4242ZM138.544 25.3842C135.784 25.3842 134.464 23.8002 134.464 20.8002V14.8722H132.88V12.0882H134.464V9.08821H138.136V12.0882H140.776V14.8722H138.136L138.138 20.4913C138.165 21.6468 138.535 22.2882 140.056 22.2882H140.752V25.0482C140.344 25.2402 139.528 25.3842 138.544 25.3842ZM154.6 20.7522H150.76C150.376 21.9282 149.56 22.4562 148.36 22.4562C146.776 22.4562 145.816 21.3522 145.624 19.2882H154.504V18.4722C154.504 14.2482 152.08 11.6802 148.216 11.6802C144.376 11.6802 141.88 14.1522 141.88 18.5442C141.88 22.7922 144.352 25.3842 148.36 25.3842C151.528 25.3842 153.928 23.7282 154.6 20.7522ZM150.712 17.1762C150.424 15.4962 149.56 14.6082 148.216 14.6082C146.848 14.6082 145.984 15.4962 145.696 17.1762H150.712Z" fill="#23232D"/>
<path fill-rule="evenodd" clip-rule="evenodd" d="M26.3564 5.97906L19.5 2.02051L16.0239 8.04123L22.9042 19.9583H29.8564V12.0412H22.8564L26.3564 5.97906ZM22.8803 19.9998H9.11962L5.64355 26.0205L12.5 29.9791L16 23.9169L19.5 29.9791L26.3564 26.0205L22.8803 19.9998ZM9.09569 19.9583L15.976 8.04123L12.5 2.02051L5.64355 5.97906L9.14355 12.0412H2.14355V19.9583H9.09569Z" fill="#824DEB"/>
<path fill-rule="evenodd" clip-rule="evenodd" d="M26.3569 5.97906L19.5005 2.02051L16.0244 8.04123L20.5859 15.9419L22.8569 12.0412L26.3569 5.97906Z" fill="#F7A7E9"/>
</svg>
