<svg width="40" height="40" viewBox="0 0 40 40" fill="none" xmlns="http://www.w3.org/2000/svg">
<path d="M35.5915 24.6198C34.452 28.4761 31.9243 31.7736 28.4965 33.8759C25.0686 35.9782 20.9836 36.7362 17.0297 36.0037C13.0758 35.2712 9.53338 33.1001 7.08615 29.9093C4.63891 26.7186 3.46033 22.7344 3.77787 18.7258C4.09541 14.7172 5.88656 10.9683 8.80563 8.20264C11.7247 5.43698 15.5648 3.85063 19.5847 3.74975C23.6046 3.64888 27.5193 5.04062 30.5735 7.65638L34.1156 4.11263C34.3502 3.87808 34.6683 3.74631 35 3.74631C35.3317 3.74631 35.6498 3.87808 35.8844 4.11263C36.1189 4.34718 36.2507 4.6653 36.2507 4.99701C36.2507 5.32871 36.1189 5.64683 35.8844 5.88138L20.8844 20.8814C20.6498 21.1159 20.3317 21.2477 20 21.2477C19.6683 21.2477 19.3502 21.1159 19.1156 20.8814C18.8811 20.6468 18.7493 20.3287 18.7493 19.997C18.7493 19.6653 18.8811 19.3472 19.1156 19.1126L23.4469 14.7814C22.2731 14.0051 20.8716 13.6476 19.4693 13.7669C18.0671 13.8862 16.7462 14.4753 15.7204 15.4388C14.6946 16.4022 14.0239 17.6837 13.8171 19.0757C13.6102 20.4678 13.8792 21.8889 14.5805 23.109C15.2818 24.3291 16.3744 25.2768 17.6813 25.7987C18.9883 26.3207 20.4332 26.3862 21.782 25.9848C23.1309 25.5833 24.3047 24.7384 25.1136 23.5868C25.9225 22.4352 26.3191 21.0442 26.2391 19.6392C26.2298 19.475 26.253 19.3107 26.3073 19.1555C26.3616 19.0003 26.4459 18.8573 26.5555 18.7347C26.665 18.6121 26.7976 18.5123 26.9458 18.4409C27.0939 18.3696 27.2546 18.3281 27.4188 18.3189C27.7503 18.3002 28.0756 18.414 28.3232 18.6353C28.4459 18.7448 28.5457 18.8774 28.617 19.0256C28.6884 19.1737 28.7298 19.3344 28.7391 19.4986C28.853 21.4873 28.285 23.4554 27.1289 25.0775C25.9728 26.6997 24.2978 27.8788 22.3807 28.42C20.4637 28.9612 18.4194 28.8321 16.5856 28.054C14.7519 27.276 13.2385 25.8955 12.2957 24.1408C11.3528 22.3861 11.0369 20.3622 11.4001 18.4036C11.7633 16.445 12.784 14.669 14.2934 13.3691C15.8027 12.0692 17.7105 11.3232 19.7012 11.2544C21.692 11.1856 23.6467 11.7981 25.2422 12.9908L28.7969 9.43607C26.1919 7.27325 22.8797 6.14914 19.4964 6.27963C16.113 6.41012 12.8972 7.78601 10.4666 10.143C8.03589 12.5001 6.56175 15.6721 6.32727 19.0498C6.0928 22.4275 7.11452 25.7727 9.1962 28.443C11.2779 31.1133 14.2727 32.9203 17.6056 33.517C20.9384 34.1137 24.3742 33.458 27.253 31.6759C30.1319 29.8938 32.2508 27.1108 33.2028 23.8616C34.1548 20.6124 33.8728 17.126 32.411 14.072C32.268 13.7728 32.2497 13.4291 32.3602 13.1164C32.4707 12.8038 32.7008 12.5478 33 12.4048C33.2992 12.2619 33.643 12.2436 33.9556 12.3541C34.2683 12.4645 34.5242 12.6947 34.6672 12.9939C36.4018 16.6217 36.7311 20.7634 35.5915 24.6198Z" fill="#824DEB"/>
</svg>
