<svg width="40" height="40" viewBox="0 0 40 40" fill="none" xmlns="http://www.w3.org/2000/svg">
<path fill-rule="evenodd" clip-rule="evenodd" d="M3.84528 28.2713C3.78237 28.423 3.74999 28.5857 3.74999 28.75C3.74999 28.9142 3.78237 29.0769 3.84528 29.2286C3.90818 29.3804 4.00038 29.5182 4.1166 29.6343L7.8666 33.3843C8.10115 33.6189 8.41927 33.7507 8.75098 33.7507C9.08268 33.7507 9.4008 33.6189 9.63535 33.3843C9.8699 33.1498 10.0017 32.8317 10.0017 32.5C10.0017 32.1683 9.8699 31.8501 9.63535 31.6156L8.01816 30H9.8541C11.6446 29.9985 13.4089 29.5704 15.0009 28.7511C16.5929 27.9319 17.9668 26.7451 19.0088 25.289L25.5275 16.164C26.338 15.0316 27.4066 14.1086 28.6448 13.4714C29.8831 12.8342 31.2553 12.5012 32.6479 12.5H36.251C36.5825 12.5 36.9004 12.3683 37.1349 12.1338C37.3693 11.8994 37.501 11.5815 37.501 11.25C37.501 10.9184 37.3693 10.6005 37.1349 10.3661C36.9004 10.1317 36.5825 9.99996 36.251 9.99996H32.6479C30.8574 10.0015 29.0931 10.4296 27.501 11.2488C25.909 12.068 24.5351 13.2549 23.4932 14.7109L16.9744 23.8359C16.1639 24.9683 15.0953 25.8913 13.8571 26.5285C12.6189 27.1657 11.2467 27.4987 9.8541 27.5H8.01816L9.63535 25.8843C9.8699 25.6498 10.0017 25.3317 10.0017 25C10.0017 24.6683 9.8699 24.3501 9.63535 24.1156C9.4008 23.881 9.08268 23.7493 8.75098 23.7493C8.41927 23.7493 8.10115 23.881 7.8666 24.1156L4.1166 27.8656C4.00038 27.9817 3.90818 28.1195 3.84528 28.2713ZM18.4627 16.9193C18.3027 16.9564 18.1371 16.9615 17.9752 16.9346C17.8132 16.9076 17.6582 16.8489 17.5189 16.762C17.3797 16.6751 17.2589 16.5617 17.1635 16.4281L16.976 16.1672C16.1657 15.0339 15.097 14.1102 13.8585 13.4724C12.6199 12.8347 11.2472 12.5013 9.8541 12.5H8.01816L9.63535 14.1156C9.8699 14.3501 10.0017 14.6683 10.0017 15C10.0017 15.3317 9.8699 15.6498 9.63535 15.8843C9.4008 16.1189 9.08268 16.2507 8.75098 16.2507C8.41927 16.2507 8.10115 16.1189 7.8666 15.8843L4.1166 12.1343C4.00038 12.0182 3.90818 11.8804 3.84528 11.7286C3.78237 11.5769 3.74999 11.4142 3.74999 11.25C3.74999 11.0857 3.78237 10.923 3.84528 10.7713C3.90818 10.6195 4.00038 10.4817 4.1166 10.3656L7.8666 6.61559C8.10115 6.38104 8.41927 6.24927 8.75098 6.24927C9.08268 6.24927 9.4008 6.38104 9.63535 6.61559C9.8699 6.85014 10.0017 7.16826 10.0017 7.49996C10.0017 7.83167 9.8699 8.14979 9.63535 8.38434L8.01816 9.99996H9.8541C11.6446 10.0015 13.4089 10.4296 15.0009 11.2488C16.5929 12.068 17.9668 13.2549 19.0088 14.7109L19.1963 14.9718C19.2923 15.1054 19.3609 15.2566 19.3984 15.4168C19.4358 15.577 19.4412 15.743 19.4144 15.9053C19.3875 16.0676 19.3289 16.223 19.2419 16.3625C19.1548 16.5021 19.0411 16.6232 18.9072 16.7187C18.7736 16.8141 18.6226 16.8823 18.4627 16.9193ZM24.0393 23.0806C24.1992 23.0436 24.3649 23.0384 24.5268 23.0654C24.6887 23.0924 24.8437 23.151 24.983 23.2379C25.1223 23.3248 25.2431 23.4383 25.3385 23.5718L25.526 23.8328C26.3363 24.966 27.405 25.8897 28.6435 26.5275C29.882 27.1652 31.2548 27.4986 32.6479 27.5H36.251C36.5825 27.5 36.9004 27.6317 37.1349 27.8661C37.3693 28.1005 37.501 28.4184 37.501 28.75C37.501 29.0815 37.3693 29.3994 37.1349 29.6338C36.9004 29.8683 36.5825 30 36.251 30H32.6479C30.8574 29.9985 29.0931 29.5704 27.501 28.7511C25.909 27.9319 24.5351 26.7451 23.4932 25.289L23.3057 25.0281C23.2097 24.8945 23.141 24.7433 23.1036 24.5831C23.0662 24.4229 23.0607 24.2569 23.0876 24.0946C23.1144 23.9324 23.1731 23.777 23.2601 23.6374C23.3471 23.4978 23.4608 23.3768 23.5947 23.2812C23.7283 23.1858 23.8794 23.1176 24.0393 23.0806Z" fill="#824DEB"/>
</svg>
