<svg width="40" height="40" viewBox="0 0 40 40" fill="none" xmlns="http://www.w3.org/2000/svg">
<path fill-rule="evenodd" clip-rule="evenodd" d="M6.95 5.10317C6.57766 4.99458 6.18517 4.9741 5.80355 5.04336C5.42194 5.11262 5.06167 5.26972 4.75125 5.50224C4.44082 5.73475 4.18876 6.0363 4.01498 6.38304C3.8412 6.72978 3.75048 7.1122 3.75 7.50005V30C3.75 30.6631 4.01339 31.299 4.48223 31.7678C4.95107 32.2367 5.58696 32.5 6.25 32.5C6.48906 32.5001 6.7269 32.4659 6.95625 32.3985L20 28.3954V30C20 30.6631 20.2634 31.299 20.7322 31.7678C21.2011 32.2367 21.837 32.5 22.5 32.5H27.5C28.163 32.5 28.7989 32.2367 29.2678 31.7678C29.7366 31.299 30 30.6631 30 30V25.3282L34.4594 23.961C34.9755 23.8059 35.4281 23.4891 35.7505 23.0573C36.0729 22.6254 36.248 22.1014 36.25 21.5625V15.9375C36.2477 15.3989 36.0724 14.8753 35.75 14.4438C35.4277 14.0122 34.9752 13.6957 34.4594 13.5407L6.95 5.10317ZM6.25 30V7.50005L20 11.7188V25.7813L6.25 30ZM22.5 30V27.6282L27.5 26.0938V30H22.5ZM33.7328 21.5625L22.5 25.0126V12.4875L33.7328 15.925H33.75V21.55V21.5625H33.7328Z" fill="#824DEB"/>
</svg>
