<svg width="40" height="40" viewBox="0 0 40 40" fill="none" xmlns="http://www.w3.org/2000/svg">
<path fill-rule="evenodd" clip-rule="evenodd" d="M6.25023 35C5.91871 35 5.60076 34.8683 5.36634 34.6339C5.13192 34.3995 5.00023 34.0815 5.00023 33.75C5.00023 25.3703 10.7049 23.8469 10.9471 23.7859C11.2689 23.7055 11.6094 23.7563 11.8938 23.9269C12.1782 24.0976 12.3831 24.3743 12.4635 24.6961C12.5439 25.0179 12.4932 25.3584 12.3225 25.6428C12.1518 25.9272 11.8751 26.1321 11.5534 26.2125C11.4127 26.2516 8.05023 27.2344 7.5596 32.4406C12.7659 31.95 13.7502 28.5937 13.7909 28.4375C13.8737 28.1161 14.0809 27.8408 14.3667 27.6722C14.6526 27.5036 14.9937 27.4554 15.3151 27.5383C15.6364 27.6212 15.9117 27.8283 16.0804 28.1141C16.249 28.4 16.2972 28.7411 16.2143 29.0625V29.0531C16.1534 29.2953 14.6299 35 6.25023 35ZM30.0002 19.2672V28.3812C30.0021 28.7108 29.9384 29.0375 29.8129 29.3422C29.6873 29.6469 29.5024 29.9236 29.269 30.1562L23.9065 35.5156C23.6752 35.7485 23.4001 35.9333 23.0971 36.0594C22.7941 36.1854 22.4691 36.2502 22.1409 36.25C21.87 36.2499 21.6009 36.2061 21.344 36.1203C20.9029 35.9744 20.5114 35.708 20.2137 35.3513C19.9161 34.9946 19.7241 34.5617 19.6596 34.1016L18.8205 28.0875L11.9127 21.1797L5.90179 20.3406C5.44108 20.276 5.00753 20.0841 4.64992 19.7865C4.29232 19.489 4.02484 19.0975 3.87758 18.6562C3.73031 18.2149 3.70911 17.7413 3.81635 17.2886C3.92359 16.8359 4.15502 16.4221 4.4846 16.0937L9.84398 10.7312C10.0766 10.4978 10.3533 10.3129 10.658 10.1874C10.9628 10.0618 11.2894 9.99813 11.619 9.99999H20.733L21.4784 9.25468C25.6471 5.08749 30.6705 4.9078 32.6362 5.02499C33.2457 5.06203 33.8205 5.32085 34.2523 5.75262C34.6841 6.18439 34.9429 6.75925 34.9799 7.36874C35.094 9.32968 34.9143 14.3531 30.7471 18.5219H30.7455L30.0002 19.2672ZM12.0549 18.675L18.233 12.5H11.619L6.25023 17.8656L12.0549 18.675ZM20.0002 25.7312L28.9768 16.7547C30.1865 15.5531 31.125 14.1065 31.7293 12.5121C32.3335 10.9177 32.5894 9.21246 32.4799 7.51093C30.7793 7.40547 29.0757 7.6641 27.483 8.26955C25.8903 8.875 24.4451 9.81333 23.244 11.0219L14.269 20L20.0002 25.7312ZM21.3237 27.9437L22.1362 33.75L27.5002 28.3812V21.7672L21.3237 27.9437Z" fill="#824DEB"/>
</svg>
