<svg width="85" height="23" viewBox="0 0 85 23" fill="none" xmlns="http://www.w3.org/2000/svg">
<path fill-rule="evenodd" clip-rule="evenodd" d="M9.31978 21.6739L9.31975 21.6739C8.7937 21.7271 8.26189 21.7808 7.72284 21.8526L3.63814 9.88845V22.3661C2.49038 22.4869 1.43344 22.6441 0.352568 22.8048L0 22.8571V0H3.39277L8.03528 12.9689V0H11.6288V21.3838C10.8688 21.5173 10.1007 21.5949 9.31993 21.6739L9.31989 21.6739L9.31986 21.6739L9.31982 21.6739L9.31978 21.6739ZM18.6597 8.37054C19.3663 8.37054 20.2647 8.35308 21.1443 8.33599H21.1443H21.1444H21.1444H21.1445L21.1446 8.33599C21.9878 8.3196 22.8136 8.30356 23.4363 8.30356V11.8749C21.8515 11.8749 19.999 11.8749 18.6597 11.9419V17.2545C19.2542 17.2166 19.8487 17.175 20.4436 17.1334L20.444 17.1334L20.4443 17.1334L20.4447 17.1334L20.445 17.1333L20.4454 17.1333L20.4455 17.1333L20.4456 17.1333L20.4457 17.1333L20.4458 17.1333L20.4459 17.1333C21.9501 17.0282 23.4575 16.9229 24.9763 16.8749V20.3122L15.0884 21.0936V0H24.9763V3.57143H18.6597V8.37054ZM34.5517 3.57152H38.2568L38.257 0H27.2755V3.57152H30.9806V20.0446C32.1411 20.0001 33.3464 20.0001 34.5517 20.0001V3.57152ZM44.0601 8.12507H48.9483V11.6964H44.0601V19.7992H40.5555V0H50.533V3.57143H44.0601V8.12507ZM60.7836 16.8894L60.7833 16.8894C59.3122 16.7987 57.8183 16.7066 56.3362 16.6741V0H52.7651V20.0446C56.0238 20.1117 59.2156 20.3123 62.4074 20.5134V16.9865C61.8704 16.9564 61.3285 16.923 60.7836 16.8894ZM65.4205 20.7589L65.608 20.77L65.6082 20.77C66.6908 20.8335 67.8277 20.9003 68.9248 21.0267V0H65.4205V20.7589ZM80.0403 10.8706L84.5714 0H80.6654L78.1654 6.00448L75.8218 0H71.9828L76.1345 10.7365L71.5366 21.2053C72.0717 21.2791 72.5993 21.3338 73.1255 21.3885C73.8721 21.466 74.6162 21.5432 75.3757 21.6742L77.9869 15.6028L80.5536 22.2098C80.8882 22.2655 81.2227 22.3227 81.5573 22.3799C82.562 22.5515 83.5667 22.7232 84.5714 22.8571L80.0403 10.8706Z" fill="white"/>
</svg>
