<svg width="75" height="29" viewBox="0 0 75 29" fill="none" xmlns="http://www.w3.org/2000/svg">
<path fill-rule="evenodd" clip-rule="evenodd" d="M73.7258 13.8418L73.7258 13.8419C73.5202 14.6156 72.7454 17.5317 70.3479 17.5317C69.2779 17.5317 68.5313 16.7418 68.0834 15.7792C71.4179 15.0387 72.5377 12.4223 72.5377 10.6452C72.5377 8.57178 71.0446 7.80661 69.7756 7.80661C67.7102 7.80661 64.9978 9.73188 64.9978 13.459C64.9978 13.8046 65.0227 14.1255 65.0475 14.4216C64.3259 14.1995 63.7038 13.8293 63.2808 13.1875C63.9029 10.423 63.8033 7.78193 62.5093 7.78193C61.7877 7.78193 61.1656 8.71988 61.1656 10.7933C61.1656 11.6078 61.3895 12.5211 61.8126 13.3356C61.5388 14.5944 60.643 17.6551 59.4735 17.6551C58.0925 17.6551 58.2832 11.9949 58.3582 9.76626C58.3698 9.42467 58.3785 9.1637 58.3785 9.01608C58.3785 8.10281 56.1638 7.16485 55.691 7.63383C55.492 7.83129 55.4422 9.06544 55.4422 10.6452C55.4422 11.9534 55.5417 13.4837 55.8403 14.9153C55.691 15.6805 55.0192 17.6798 53.7998 17.6798C52.2414 17.6798 52.6093 12.8359 52.787 10.496C52.825 9.99629 52.8542 9.61079 52.8542 9.411C52.8542 8.59647 50.7391 7.83129 50.2165 8.32495C50.0174 8.52242 49.8681 9.97871 49.8681 12.2249C49.8681 13.1628 49.9179 14.1501 50.0672 15.0881C49.8681 16.0754 49.0718 17.6798 47.8027 17.6798C45.7708 17.6798 46.6506 9.94543 47.1986 5.12767L47.2055 5.0668C47.529 5.01743 47.8774 4.96807 48.2258 4.9187C48.2972 4.91083 48.3699 4.90249 48.4432 4.89407L48.4435 4.89404C49.2894 4.79695 50.2165 4.69054 50.2165 5.19022C50.2165 6.44905 51.0626 6.84397 51.6847 6.84397C52.3814 6.84397 52.9787 6.30095 52.9787 5.26426C52.9787 4.25226 52.0828 3.28963 50.5151 3.28963C49.47 3.28963 48.3999 3.41304 47.3548 3.58582C47.3748 3.36789 47.3948 3.16409 47.4133 2.97489L47.4134 2.97406C47.4641 2.45654 47.5041 2.04839 47.5041 1.75928C47.5041 0.697913 45.2894 -0.338771 44.8415 0.105522C44.7668 0.179571 44.4682 1.85801 44.1945 4.2029C42.6517 4.49909 41.1337 4.7706 39.6158 4.7706C39.0932 4.7706 39.1679 6.35031 40.9347 6.35031C41.9549 6.35031 42.9752 6.12817 44.0203 5.85666C43.871 7.48573 43.7715 9.28759 43.7715 11.0154C43.7715 12.5704 43.871 13.928 44.0701 15.0881C43.871 15.952 43.2489 17.7045 42.0793 17.7045C40.2161 17.7045 40.6436 12.3912 40.8399 9.95165C40.8796 9.45894 40.9098 9.08345 40.9098 8.89266C40.9098 8.34964 38.8693 7.16485 38.4462 7.58446C38.3965 7.63383 38.3467 7.97939 38.3467 7.97939C38.3467 7.97939 38.073 7.78193 37.3264 7.78193C34.4647 7.78193 32.1754 11.2869 32.1754 14.471C32.1754 14.6191 32.1754 14.7672 32.2003 14.9153C31.7524 15.952 30.6326 17.7292 28.6169 17.7292C27.5967 17.7292 26.875 17.0627 26.3773 16.1988C29.5128 15.3102 30.7321 12.5951 30.7321 10.8426C30.7321 8.79393 28.9902 7.78193 27.7211 7.78193C25.5064 7.78193 23.0926 9.97871 23.0926 13.6812C23.0926 14.7672 23.2917 15.6805 23.6401 16.4703C23.2419 17.0874 22.6447 17.7045 21.8235 17.7045C19.9472 17.7045 20.645 12.5813 20.9579 10.2843L20.9579 10.2842L20.9579 10.2839C21.0268 9.77842 21.077 9.40983 21.077 9.26291C21.077 9.06544 21.077 8.67052 20.7037 8.42369C20.369 8.17902 18.8866 7.93436 17.7227 7.74226C17.2427 7.66304 16.8169 7.59275 16.5481 7.5351V6.99207C16.5481 5.51109 15.6273 5.19022 15.0052 5.19022C13.985 5.19022 13.7859 6.32563 13.7859 6.59714C13.7859 6.86866 13.8605 7.83129 14.8808 8.399C14.8808 11.1388 13.114 17.6304 8.38601 17.6304C4.80267 17.6304 3.50868 13.9774 3.50868 11.2622C3.50868 6.67119 6.22107 3.14153 7.96297 3.14153C9.05479 3.14153 9.11973 4.19077 9.18486 5.24298C9.25036 6.30115 9.31604 7.36232 10.4265 7.36232C11.9693 7.36232 12.1933 5.88134 12.1933 5.19022C12.1933 3.9067 10.8496 1.51245 7.96297 1.51245C3.38426 1.51245 0 7.04144 0 11.7806C0 16.3469 3.16031 20 7.58971 20C14.4329 20 16.125 12.7926 16.4734 8.76925C16.6324 8.81305 16.8697 8.86618 17.1142 8.92091L17.1143 8.92092L17.1143 8.92093L17.1143 8.92093L17.1144 8.92095C17.5588 9.02043 18.0267 9.12518 18.0909 9.18886C18.1702 9.26756 18.105 9.81746 18.0104 10.6146C17.8974 11.5674 17.7425 12.8734 17.7425 14.1501C17.7425 17.0874 18.713 19.457 21.0521 19.457C22.5203 19.457 23.6898 18.3956 24.312 17.5811C25.2576 18.7905 26.6262 19.4076 27.9699 19.4076C30.2842 19.4076 31.8021 17.976 32.5487 16.8406C33.1956 18.5684 34.5145 19.4076 35.709 19.4076C37.3762 19.4076 38.3716 17.1861 38.4213 16.8406C38.919 18.3956 40.0886 19.457 41.4075 19.457C43.0747 19.457 44.095 17.9513 44.4931 17.0134C45.0903 18.5931 46.0359 19.457 47.4046 19.457C48.9723 19.457 49.9925 18.05 50.4653 17.1121C50.963 18.4943 51.7842 19.457 53.0782 19.457C54.8201 19.457 55.915 17.6798 56.2634 16.7912C56.8357 18.3216 57.7316 19.4076 59.1251 19.4076C60.6679 19.4076 62.0117 17.2108 62.8079 14.7425C63.4549 15.3596 64.301 15.8039 65.3213 15.9273C66.0927 18.1488 67.9092 19.3829 69.8253 19.3829C73.1598 19.3829 74.4538 15.9767 74.6031 15.1868C74.8022 14.3723 74.0308 13.4096 73.7819 13.6565C73.7727 13.6656 73.755 13.732 73.726 13.8412L73.7258 13.8418ZM27.6216 8.8433C29.0151 8.8433 28.1939 14.1255 25.9045 14.9894C25.7304 14.4216 25.6557 13.8786 25.6557 13.459C25.6308 11.6818 26.3525 8.8433 27.6216 8.8433ZM36.1071 17.2355C33.6684 17.2355 35.3855 8.86798 37.3264 8.86798C38.6204 8.86798 38.4213 17.2355 36.1071 17.2355ZM69.452 8.89266C70.7958 8.89266 70.0244 14.3476 67.6853 14.6932C67.5608 14.2489 67.5111 13.8046 67.5111 13.459C67.5111 11.6818 68.183 8.89266 69.452 8.89266ZM23.2155 23.3333H22.4059C22.3552 23.3333 22.3046 23.359 22.2793 23.4104L20.8371 25.8497C20.7612 25.9267 20.7106 25.9267 20.66 25.8497L19.2684 23.4104C19.2431 23.359 19.1925 23.3333 19.1419 23.3333H18.3576C18.2564 23.3333 18.1805 23.4104 18.1805 23.5131V28.3917C18.1805 28.4944 18.2564 28.5714 18.3576 28.5714H19.1419C19.2431 28.5714 19.319 28.4944 19.319 28.3917V25.8754C19.319 25.7213 19.4708 25.6443 19.5721 25.7726L20.66 27.57C20.7359 27.6727 20.8624 27.6727 20.913 27.57L22.0263 25.7726C22.1275 25.6443 22.2793 25.7213 22.2793 25.8754V28.3917C22.2793 28.4944 22.3552 28.5714 22.4565 28.5714H23.2661C23.3673 28.5714 23.4432 28.4944 23.4432 28.3917V23.5131C23.3926 23.4104 23.3167 23.3333 23.2155 23.3333ZM28.8966 23.3333C28.9703 23.3333 29.0194 23.3849 29.044 23.4365L31.0828 28.3392C31.1319 28.4424 31.0582 28.5714 30.9354 28.5714H30.1248C30.0511 28.5714 30.002 28.5198 29.9774 28.4682L29.6581 27.6425C29.6335 27.5909 29.5844 27.5393 29.5107 27.5393H27.4228C27.3491 27.5393 27.3 27.5909 27.2754 27.6425L26.9807 28.4682C26.9561 28.5198 26.907 28.5714 26.8333 28.5714H25.9982C25.8753 28.5714 25.8016 28.4424 25.8508 28.3392L27.9141 23.4365C27.9387 23.3849 27.9878 23.3333 28.0615 23.3333H28.8966ZM27.9632 26.533H29.0194C29.1177 26.533 29.216 26.4039 29.1914 26.3007L28.651 24.8815C28.6019 24.7525 28.4054 24.7525 28.3562 24.8815L27.8158 26.3007C27.7667 26.4039 27.8404 26.533 27.9632 26.533ZM43.6824 25.5159C43.6341 25.5672 43.6341 25.6699 43.6824 25.7213L45.4222 28.3147C45.4947 28.4174 45.4222 28.5714 45.3014 28.5714H44.3832C44.3349 28.5714 44.2865 28.5458 44.2624 28.4944L43.0542 26.6457C43.0059 26.5686 42.885 26.5686 42.8125 26.6457L42.1843 27.4416C42.1843 27.4545 42.1782 27.4737 42.1722 27.493C42.1662 27.5123 42.1601 27.5315 42.1601 27.5444V28.3917C42.1601 28.4687 42.1118 28.5458 42.0151 28.5458H41.2902C41.2177 28.5458 41.1452 28.4944 41.1452 28.3917V23.4874C41.1452 23.4104 41.1936 23.3333 41.2902 23.3333H42.0151C42.0876 23.3333 42.1601 23.3847 42.1601 23.4874V25.4902C42.1601 25.6443 42.3293 25.7213 42.4259 25.5929L44.0932 23.3847C44.1174 23.359 44.1657 23.3333 44.214 23.3333H45.0356C45.1564 23.3333 45.2289 23.4874 45.1564 23.5901L43.6824 25.5159ZM51.9716 27.5135H49.588C49.4887 27.5135 49.4142 27.4361 49.4142 27.3329V26.5588C49.4142 26.4555 49.4887 26.3781 49.588 26.3781H51.177C51.2764 26.3781 51.3508 26.3007 51.3508 26.1975V25.6298C51.3508 25.5266 51.2764 25.4492 51.177 25.4492H49.588C49.4887 25.4492 49.4142 25.3718 49.4142 25.2686V24.5203C49.4142 24.4171 49.4887 24.3397 49.588 24.3397H51.7978C51.8971 24.3397 51.9716 24.2623 51.9716 24.159V23.514C51.9716 23.4107 51.8971 23.3333 51.7978 23.3333H48.4955C48.3962 23.3333 48.3217 23.4107 48.3217 23.514V28.3908C48.3217 28.494 48.3962 28.5714 48.4955 28.5714H51.9716C52.0709 28.5714 52.1454 28.494 52.1454 28.3908V27.7457C52.1702 27.5909 52.0709 27.5135 51.9716 27.5135ZM54.6902 23.3333H58.732C58.8064 23.3333 58.8808 23.4044 58.8312 23.4755V24.0914C58.8312 24.1625 58.7816 24.2336 58.6824 24.2336H57.3682C57.2938 24.2336 57.2194 24.281 57.2194 24.3757V27.9531C57.2194 28.0242 57.1698 28.0952 57.0706 28.0952H56.3019C56.2276 28.0952 56.1532 28.0479 56.1532 27.9531V24.3757C56.1532 24.3047 56.1036 24.2336 56.0044 24.2336H54.6902C54.6158 24.2336 54.5414 24.1862 54.5414 24.0914V23.4755C54.5414 23.4044 54.591 23.3333 54.6902 23.3333ZM35.6226 23.3333C36.9929 23.3333 37.7962 24.155 37.7962 25.2848C37.7962 25.9781 37.5127 26.4402 37.1347 26.774C37.0874 26.8254 37.0638 26.9024 37.0874 26.9795L37.7253 28.3403C37.7726 28.443 37.7017 28.5714 37.5836 28.5714H36.7567C36.6858 28.5714 36.6385 28.5201 36.6149 28.4687L36.0715 27.2876C36.0331 27.2041 35.9947 27.2054 35.893 27.2089H35.8929C35.8695 27.2096 35.8426 27.2106 35.8116 27.2106H35.7171H35.1501C35.0083 27.2106 34.9847 27.2362 34.9847 27.3646V28.3917C34.9847 28.4687 34.9374 28.5458 34.8429 28.5458H34.1105C34.0396 28.5458 33.9688 28.4944 33.9688 28.3917V23.5131C33.9688 23.436 34.016 23.359 34.1105 23.359C34.6303 23.3333 35.1264 23.3333 35.6226 23.3333ZM35.5045 26.2149C35.5675 26.212 35.6305 26.2092 35.6935 26.2092C36.4259 26.1578 36.7567 25.7726 36.7567 25.2848C36.7567 24.6942 36.2841 24.3861 35.6698 24.3604C35.4572 24.3347 35.2918 24.3347 35.1264 24.3347C35.0556 24.3347 34.9847 24.3861 34.9847 24.4888V26.0551C34.9847 26.1321 35.0319 26.2092 35.1264 26.2092C35.2524 26.2263 35.3784 26.2206 35.5044 26.2149H35.5045Z" fill="white"/>
</svg>
