<svg width="83" height="26" viewBox="0 0 83 26" fill="none" xmlns="http://www.w3.org/2000/svg">
<path fill-rule="evenodd" clip-rule="evenodd" d="M12.8589 0C5.75726 0 0 5.75644 0 12.8572C0 19.9583 5.75726 25.7143 12.8589 25.7143C19.9612 25.7143 25.7179 19.9583 25.7179 12.8572C25.7179 5.7569 19.9612 0.000614135 12.8587 0.000614135L12.8589 0ZM18.7559 18.5438C18.5255 18.9215 18.0311 19.0413 17.6534 18.8094C14.6342 16.9655 10.8335 16.5479 6.3575 17.5704C5.92617 17.6687 5.49622 17.3984 5.39795 16.967C5.29922 16.5356 5.56839 16.1057 6.0008 16.0074C10.8991 14.8885 15.1007 15.3703 18.4902 17.4414C18.868 17.6733 18.9877 18.1661 18.7559 18.5438ZM20.3298 15.0429C20.0396 15.5146 19.4223 15.6635 18.9509 15.3733C15.4944 13.249 10.2256 12.6338 6.1373 13.8747C5.60709 14.0348 5.04709 13.736 4.88616 13.2068C4.72647 12.6767 5.02544 12.1178 5.55473 11.9566C10.2247 10.5398 16.0303 11.2261 19.9996 13.665C20.471 13.9551 20.62 14.5723 20.3298 15.0431V15.0429ZM20.4649 11.3974C16.3205 8.93612 9.48288 8.70981 5.52601 9.9106C4.89062 10.1033 4.21868 9.74463 4.02612 9.10931C3.83357 8.47368 4.19196 7.80228 4.82782 7.60913C9.37002 6.2304 16.9209 6.49678 21.6924 9.32901C22.2651 9.66817 22.4525 10.4062 22.1131 10.9769C21.7753 11.5483 21.0352 11.7367 20.4655 11.3974H20.4649ZM34.9847 11.8691C32.7644 11.3397 32.3697 10.9681 32.3697 10.1874C32.3697 9.44985 33.0638 8.95347 34.0972 8.95347C35.0984 8.95347 36.0903 9.3304 37.1314 10.1064C37.1621 10.1298 37.202 10.1392 37.2404 10.1331C37.2803 10.1272 37.3141 10.1059 37.3371 10.0738L38.4212 8.54584C38.4657 8.48289 38.4535 8.39614 38.3936 8.34809C37.1544 7.35426 35.7602 6.87109 34.1294 6.87109C31.7325 6.87109 30.0573 8.30955 30.0573 10.3677C30.0573 12.5747 31.5022 13.3562 33.9989 13.9594C36.1225 14.4487 36.4819 14.8587 36.4819 15.5913C36.4819 16.4035 35.7571 16.9087 34.5901 16.9087C33.2941 16.9087 32.2362 16.4711 31.0538 15.4486C31.0246 15.4225 30.9847 15.4117 30.9479 15.4132C30.9079 15.4163 30.8726 15.4347 30.848 15.4639L29.6319 16.9102C29.5812 16.9716 29.5874 17.0607 29.6457 17.1129C31.0216 18.3411 32.7137 18.989 34.541 18.989C37.1237 18.989 38.7928 17.5781 38.7928 15.3933C38.7974 13.5498 37.6934 12.5288 34.9893 11.8711L34.9847 11.8691ZM44.637 9.67969C43.5176 9.67969 42.5993 10.1206 41.8408 11.0242V10.0072C41.8408 9.92688 41.7763 9.86147 41.6965 9.86147H39.708C39.6281 9.86147 39.5636 9.92688 39.5636 10.0072V21.3074C39.5636 21.3872 39.6281 21.4533 39.708 21.4533H41.6965C41.7763 21.4533 41.8408 21.3872 41.8408 21.3074V17.7408C42.5993 18.5899 43.5176 19.0059 44.637 19.0059C46.7176 19.0059 48.8243 17.4046 48.8243 14.3433C48.8274 11.2813 46.7207 9.67953 44.6385 9.67953L44.637 9.67969ZM46.5118 14.3433C46.5118 15.9015 45.5521 16.99 44.1763 16.99C42.8174 16.99 41.7917 15.8524 41.7917 14.3433C41.7917 12.834 42.8174 11.6967 44.1763 11.6967C45.5291 11.6965 46.5118 12.8093 46.5118 14.3431V14.3433ZM54.2217 9.67969C51.5422 9.67969 49.4431 11.7426 49.4431 14.3766C49.4431 16.9824 51.5284 19.0228 54.1894 19.0228C56.8781 19.0228 58.9833 16.967 58.9833 14.3433C58.9833 11.7284 56.8919 9.67999 54.2217 9.67999V9.67969ZM54.2217 17.0054C52.7967 17.0054 51.7218 15.86 51.7218 14.3425C51.7218 12.8181 52.7599 11.7119 54.1894 11.7119C55.6236 11.7119 56.7046 12.8568 56.7046 14.3758C56.7046 15.9 55.6604 17.0054 54.2217 17.0054ZM64.7046 9.86147H62.5165V7.6251C62.5165 7.54495 62.452 7.47955 62.3722 7.47955H60.3837C60.3038 7.47955 60.2378 7.54495 60.2378 7.6251V9.86147H59.2827C59.2029 9.86147 59.1384 9.92688 59.1384 10.0072V11.7155C59.1384 11.7957 59.2029 11.8612 59.2827 11.8612H60.2378V16.2822C60.2378 18.0678 61.1269 18.9737 62.882 18.9737C63.5945 18.9737 64.1856 18.8263 64.743 18.51C64.7891 18.4855 64.8167 18.4363 64.8167 18.3841V16.7567C64.8167 16.7075 64.7906 16.6599 64.7476 16.6338C64.7046 16.6062 64.6509 16.6047 64.6064 16.6277C64.224 16.8196 63.854 16.9087 63.4394 16.9087C62.8021 16.9087 62.5165 16.6185 62.5165 15.9706V11.862H64.7046C64.7845 11.862 64.849 11.7966 64.849 11.7163V10.0081C64.852 9.9278 64.7876 9.86239 64.7062 9.86239L64.7046 9.86147ZM72.3269 9.87022V9.59555C72.3269 8.7875 72.6371 8.42716 73.3312 8.42716C73.7458 8.42716 74.079 8.50945 74.4521 8.63381C74.4982 8.64825 74.5458 8.64103 74.5826 8.61355C74.621 8.58607 74.6425 8.542 74.6425 8.49533V6.82027C74.6425 6.75625 74.6026 6.6996 74.5396 6.68071C74.1465 6.56357 73.6429 6.44335 72.8874 6.44335C71.0525 6.44335 70.0805 7.47724 70.0805 9.43219V9.85287H69.1254C69.0455 9.85287 68.9795 9.91828 68.9795 9.99842V11.7155C68.9795 11.7957 69.0455 11.8612 69.1254 11.8612H70.0805V18.6789C70.0805 18.7603 70.1465 18.8248 70.2263 18.8248H72.2133C72.2947 18.8248 72.3592 18.7603 72.3592 18.6789V11.8617H74.2156L77.0594 18.6789C76.7369 19.3944 76.4191 19.5372 75.9861 19.5372C75.636 19.5372 75.2659 19.4328 74.8897 19.2255C74.8544 19.2071 74.8114 19.204 74.7745 19.2147C74.7362 19.2286 74.7039 19.2562 74.6886 19.293L74.0145 20.7716C73.9822 20.8422 74.0099 20.9236 74.0774 20.9604C74.7807 21.3412 75.4149 21.5039 76.1995 21.5039C77.6675 21.5039 78.4797 20.8192 79.1938 18.9798L82.6425 10.0692C82.6609 10.0244 82.6548 9.9737 82.6272 9.93394C82.6011 9.89448 82.5565 9.87068 82.5089 9.87068H80.4391C80.3761 9.87068 80.3208 9.91014 80.3009 9.96833L78.1803 16.0228L75.8586 9.96434C75.8371 9.90799 75.7834 9.87068 75.7235 9.87068H72.3269V9.87022ZM67.9077 9.86147H65.9192C65.8394 9.86147 65.7734 9.92688 65.7734 10.0072V18.6789C65.7734 18.7603 65.8394 18.8248 65.9192 18.8248H67.9077C67.9876 18.8248 68.0536 18.7603 68.0536 18.6789V10.0078C68.0536 9.92749 67.9891 9.86208 67.9077 9.86208V9.86147ZM66.925 5.91274C66.1373 5.91274 65.4985 6.55021 65.4985 7.33768C65.4985 8.12562 66.1373 8.76386 66.925 8.76386C67.7127 8.76386 68.35 8.12562 68.35 7.33768C68.35 6.55036 67.7112 5.91274 66.925 5.91274Z" fill="white"/>
</svg>
