<svg width="104" height="24" viewBox="0 0 104 24" fill="none" xmlns="http://www.w3.org/2000/svg">
<path fill-rule="evenodd" clip-rule="evenodd" d="M5.86542 6.55992C6.09247 6.31356 6.11136 5.93454 6.11136 5.70713V3.18665V3.18662C6.11136 2.48545 6.11136 2.06854 6.14919 1.78427C6.16813 1.63267 6.2438 1.44316 6.28169 1.3484C6.30057 1.3105 6.28169 1.3105 6.26274 1.32945L0.737906 6.95788C0.718985 6.97686 0.718985 6.99578 0.756828 6.97686L0.757229 6.9767C0.851965 6.93875 1.04085 6.8631 1.192 6.84421C1.47581 6.80631 1.89207 6.80631 2.59213 6.80631H5.01397C5.24102 6.80631 5.61944 6.78734 5.86542 6.55992ZM10.1415 21.4175C10.2739 21.7586 10.6145 22.3082 11.2578 22.7251C11.7687 23.0852 12.5444 23.4263 13.5851 23.4263C13.5851 23.4263 18.4287 23.7105 19.2423 17.8737C19.2991 17.8737 19.9992 11.8851 18.845 5.70713C18.396 3.33766 16.2136 2.9886 15.0446 2.80164C14.9327 2.78375 14.8301 2.76733 14.7392 2.75078C13.6418 2.56127 11.4659 2.18224 11.4659 2.18224C11.4659 2.18224 11.2199 1.00728 10.0658 0.723019C10.0256 0.712949 9.98834 0.703473 9.95343 0.694592C9.79125 0.653334 9.6795 0.624908 9.55493 0.609313C9.34683 0.590362 9.11978 0.571411 8.93056 0.571411H8.47646C7.54932 0.571411 6.92494 1.15889 6.83034 1.86008V1.97379V5.85874C6.83034 6.3704 6.75467 6.80631 6.43301 7.10951C6.18708 7.33693 5.80864 7.50747 5.14642 7.50747H1.40013H1.2866C0.567622 7.60223 0 8.22761 0 9.15624C0.000900792 9.16706 0.00180158 9.17793 0.00270646 9.18884C0.0208079 9.40722 0.0405435 9.64532 0.094603 9.95216C0.200077 10.6615 0.365547 11.4068 0.485901 11.949C0.516677 12.0876 0.544504 12.2129 0.567622 12.321C1.05956 14.5004 2.00559 15.2774 2.00559 15.2774C3.40572 16.7176 5.43023 17.3241 7.34121 17.2104C7.39799 17.2104 7.58721 17.1914 7.75748 17.1536C7.92775 17.1156 8.07914 17.0588 8.19263 17.0019C9.36572 16.2818 9.95226 13.6287 9.95226 13.6287C10.0847 15.3911 12.0714 16.0165 12.8661 16.1112C12.885 16.1112 13.1498 16.1491 13.4337 16.206C13.4561 16.2116 13.4787 16.2172 13.5013 16.2228C13.7083 16.2742 13.9216 16.3272 14.058 16.3955C15.0798 16.8503 15.8555 17.8737 15.8555 19.0297C15.8555 20.3183 14.8149 21.3606 13.5283 21.3606C13.0363 21.3606 12.5822 21.1712 12.2416 20.83C12.0525 20.6405 11.9389 20.3752 11.9389 20.091C11.9389 19.8256 12.0903 19.5793 12.2795 19.4276C12.4254 19.2978 12.71 19.2513 12.8482 19.2288C12.8713 19.225 12.8903 19.2219 12.9039 19.2192C12.9985 19.2002 13.131 19.1623 13.2256 19.1055C13.4904 18.9539 13.6607 18.6886 13.6607 18.3664C13.6607 17.8926 13.2823 17.5136 12.8093 17.5136C11.2199 17.5136 9.93337 18.8023 9.93337 20.3752C9.93337 20.7352 10.009 21.0953 10.1415 21.4175ZM14.2662 10.9755C14.4554 10.5017 14.9852 10.2554 15.6096 10.3122C16.2339 10.388 16.688 10.7481 16.7637 11.2787C16.7637 11.3024 16.7649 11.3273 16.7661 11.3522C16.7696 11.4268 16.7732 11.5014 16.7448 11.5441C16.7069 11.6009 16.6691 11.6198 16.6313 11.6198C16.3853 11.6577 16.0069 11.6198 15.4582 11.563C14.9095 11.5062 14.5311 11.4493 14.304 11.3356C14.2662 11.3166 14.2283 11.2977 14.2094 11.2408C14.1905 11.184 14.2283 11.0702 14.2662 10.9755ZM25.7128 16.5662L25.0695 16.6989L25.0884 17.2296H35.7029L35.9678 12.7761H35.3624C34.8704 13.97 34.5109 14.7659 34.1703 15.2776C33.546 16.2062 33.2432 16.3957 31.7296 16.3957C29.8943 16.3957 29.8375 16.2062 29.8375 14.5196V10.881H30.3484C31.7296 10.881 31.9756 10.9757 32.2026 11.4495C32.4675 11.9991 32.6188 12.3781 32.7891 12.9656H33.3567V8.07623H32.7891C32.6188 8.68266 32.4675 9.04273 32.2026 9.5165C31.9756 9.93343 31.6728 10.085 30.3484 10.085H29.8375V5.25253C30.1213 5.17673 30.5943 5.06302 31.5593 5.06302C32.8648 5.06302 33.2621 5.13883 33.8676 6.01057C34.1514 6.42749 34.4542 6.97707 34.9271 8.01937H35.5137L35.3245 4.24813H25.0695V4.77876L25.7128 4.91141C26.2615 5.04407 26.4318 5.13883 26.4318 6.27588V15.2018C26.4318 16.3388 26.2804 16.4147 25.7128 16.5662ZM36.4408 8.11413C36.9138 8.26574 37.122 8.53105 37.5571 9.59231L40.6412 17.2296H42.2305L45.1254 9.80077C45.5795 8.56896 45.7876 8.28469 46.2796 8.11413L46.6391 8.00043V7.5077H43.1765V8.00043L43.6874 8.13308C44.0847 8.22783 44.274 8.4363 44.274 8.85322C44.274 9.11853 44.1983 9.4407 44.028 9.89552L42.5143 14.2163H42.4197L40.8493 9.89552C40.6979 9.4786 40.6033 9.15644 40.6033 8.89112C40.6033 8.4363 40.7925 8.24679 41.1899 8.13308L41.7007 8.00043V7.5077H36.0813V8.00043L36.4408 8.11413ZM51.0854 7.26134C48.6068 7.26134 46.2038 9.06168 46.2038 12.3212C46.2038 15.505 47.8121 17.438 51.0664 17.4759C52.9396 17.4759 54.3587 16.4905 55.0209 15.7703V15.145C54.3208 15.505 53.4316 15.8461 52.2774 15.8461C50.3475 15.8461 49.1933 15.0123 49.1366 11.9422H55.3236C55.2668 8.55 53.6586 7.26134 51.0854 7.26134ZM52.3341 11.0515L49.1366 11.2221C49.2123 8.87217 49.9691 7.96252 50.9151 7.96252C52.0314 7.96252 52.3341 8.79637 52.3341 11.0515ZM63.1 7.20448C61.8512 7.20448 60.7728 8.13308 60.243 8.70161L60.1862 8.68266L60.2241 7.39399L60.0159 7.24238L56.0804 7.69721V8.07623L56.7049 8.49315L56.7195 8.50308C57.2364 8.85434 57.3292 8.91744 57.3292 9.70601V15.5239C57.3292 16.3199 57.2535 16.4147 56.6291 16.5852L56.1372 16.7179V17.2296H61.5296V16.7179L60.9052 16.5852C60.3376 16.4905 60.2619 16.3957 60.2619 15.5239V9.45965C60.5079 9.23224 60.9052 8.98588 61.2458 8.98588C61.4161 8.98588 61.6621 9.04273 61.7756 9.25119C61.9837 9.76287 62.5135 10.1229 63.1 10.1229C63.9136 10.1229 64.5569 9.4786 64.5569 8.66371C64.5569 7.84882 63.8947 7.20448 63.1 7.20448ZM65.6165 16.5852L65.1245 16.7179H65.1624V17.2296H70.3656V16.7179L69.9115 16.6042C69.3438 16.4526 69.2871 16.4147 69.2871 15.5239V9.23224L69.2939 9.23069C69.7105 9.13584 70.3692 8.98588 71.0278 8.98588C71.8981 8.98588 72.3143 9.34595 72.3143 10.483V15.505C72.3143 16.3768 72.2576 16.4336 71.69 16.5852L71.2359 16.6989V17.2106H76.4391V16.6989L75.9471 16.5662C75.3417 16.4147 75.266 16.3199 75.266 15.505V9.74392C75.266 8.05728 74.4146 7.24238 72.8252 7.24238C71.4629 7.24238 70.2331 7.86777 69.2492 8.56896H69.1735L69.2114 7.37504L69.0033 7.24238L65.0677 7.69721V8.07623L65.6921 8.49315L65.7066 8.50302C66.2237 8.85433 66.3165 8.9174 66.3165 9.70601V15.5239C66.3165 16.3199 66.2408 16.4147 65.6165 16.5852ZM81.8504 7.26134C79.3339 7.26134 76.7986 8.79637 76.7986 12.3781C76.7986 15.8082 79.1447 17.438 81.8504 17.438C84.4238 17.438 86.9213 15.8651 86.9213 12.2833C86.9213 8.89112 84.5558 7.26134 81.8504 7.26134ZM81.7747 7.98147C83.0613 7.98147 83.7804 8.70161 83.7804 12.4729C83.7804 16.0546 83.0046 16.7179 81.8882 16.7179C80.5259 16.7179 79.9015 15.8841 79.9015 12.0559C79.9015 8.83427 80.6016 7.98147 81.7747 7.98147ZM88.5296 8.60685V14.8607C88.5296 16.6989 89.4376 17.438 91.1215 17.438C92.6917 17.438 93.619 16.7558 94.073 16.3388V15.8082C93.7328 15.8841 93.1838 15.9788 92.7298 15.9788C91.8025 15.9788 91.5186 15.5998 91.5186 14.6712V8.60685H93.7516L93.9973 7.5077H91.5186V5.00617H90.4593C89.9297 6.5033 88.8129 7.5835 87.3565 8.15203V8.60685H88.5296ZM99.3331 7.26134C96.8544 7.26134 94.4513 9.06168 94.4513 12.3212C94.4513 15.505 96.0596 17.438 99.3331 17.4759C101.206 17.4759 102.625 16.4905 103.288 15.7703V15.145C102.587 15.505 101.698 15.8461 100.544 15.8461C98.614 15.8461 97.4597 15.0123 97.4034 11.9422H103.571C103.515 8.55 101.906 7.26134 99.3331 7.26134ZM100.582 11.0515L97.384 11.2221C97.4597 8.87217 98.2169 7.96252 99.163 7.96252C100.279 7.96252 100.582 8.79637 100.582 11.0515Z" fill="white"/>
</svg>
