<svg width="78" height="26" viewBox="0 0 78 26" fill="none" xmlns="http://www.w3.org/2000/svg">
<path fill-rule="evenodd" clip-rule="evenodd" d="M10.0277 9.06139H19.1254C19.1254 9.06139 19.2871 9.71445 19.2871 10.8573C19.2871 16.2858 15.4055 19.9184 10.1086 19.9184C4.08386 19.9184 0 14.9797 0 9.91853C0 4.73491 4.32647 -0.0405562 9.94683 0.00025976C14.3542 0.00025976 16.7802 2.69411 16.7802 2.69411L14.9202 4.65327C14.9202 4.65327 13.1411 2.69411 10.0681 2.69411C6.10557 2.69411 2.9517 5.87775 2.9517 10.0002C2.9517 14.2042 6.26731 17.2246 10.0681 17.2246C13.0198 17.2246 16.1737 15.5511 16.4972 11.7552H10.0277V9.06139ZM26.5249 7.06141C22.8049 7.06141 20.1363 10.0002 20.1363 13.4287C20.1363 16.9389 22.7241 19.9184 26.6058 19.9184C30.1235 19.9184 32.9539 17.2654 32.9539 13.5103C32.9135 9.26547 29.5979 7.06141 26.5249 7.06141ZM26.5653 9.63282C28.3849 9.63282 30.1235 11.143 30.1235 13.5103C30.1235 15.8777 28.4253 17.3878 26.5653 17.3878C24.5436 17.3878 22.9667 15.7552 22.9667 13.4695C22.9262 11.2655 24.5032 9.63282 26.5653 9.63282ZM34.0457 13.4287C34.0457 10.0002 36.7143 7.06141 40.4343 7.06141C43.5073 7.06141 46.8229 9.26547 46.8633 13.5103C46.8633 17.2654 44.0329 19.9184 40.5151 19.9184C36.6334 19.9184 34.0457 16.9389 34.0457 13.4287ZM44.0329 13.5103C44.0329 11.143 42.2942 9.63282 40.4747 9.63282C38.4126 9.63282 36.8356 11.2655 36.8761 13.4695C36.8761 15.7552 38.453 17.3878 40.4747 17.3878C42.3347 17.3878 44.0329 15.8777 44.0329 13.5103ZM54.0606 7.10223C50.6237 7.10223 47.955 10.1226 47.955 13.5103C47.955 17.347 51.0685 19.9592 53.9798 19.9592C55.7993 19.9592 56.7293 19.2654 57.4975 18.4082V19.6735C57.4975 21.8776 56.1632 23.2245 54.1415 23.2245C52.2006 23.2245 51.2302 21.7551 50.8663 20.9388L48.3998 21.9592C49.2489 23.7959 50.9876 25.7143 54.1011 25.7143C57.4975 25.7143 60.0853 23.551 60.0853 19.0205V7.46957H57.4167V8.5716C56.6888 7.67365 55.5567 7.10223 54.0606 7.10223ZM54.3032 9.63282C55.961 9.63282 57.6997 11.1022 57.6997 13.5511C57.6997 16.0817 56.0015 17.4287 54.2628 17.4287C52.4432 17.4287 50.745 15.9185 50.745 13.592C50.7854 11.0614 52.5241 9.63282 54.3032 9.63282ZM66.11 13.4695C66.11 9.63282 68.8191 7.06141 72.0539 7.06141C74.5608 7.06141 76.4612 8.77568 77.3103 10.7348L77.7551 11.7961L69.2235 15.3879C69.7491 16.3674 70.5578 17.347 72.3369 17.347C73.9138 17.347 74.8843 16.4899 75.4503 15.5919L77.6742 17.1021C76.7038 18.4082 75.0056 19.9184 72.3369 19.9184C69.1426 19.9184 66.11 17.5103 66.11 13.4695ZM74.5204 10.9389C74.116 10.1634 73.3073 9.55118 72.1347 9.55118C70.3152 9.55118 68.5361 11.4695 68.8596 13.3471L74.5204 10.9389ZM64.8566 19.5511H62.0666V0.612498H64.8566V19.5511Z" fill="white"/>
</svg>
