<svg width="90" height="26" viewBox="0 0 90 26" fill="none" xmlns="http://www.w3.org/2000/svg">
<path fill-rule="evenodd" clip-rule="evenodd" d="M22.049 23.4172L22.0489 23.4163C22.0234 23.2431 19.3435 5.04314 19.2986 4.90868C19.2986 4.77358 19.1633 4.72855 19.0731 4.72855C18.983 4.72855 17.0441 4.59345 17.0441 4.59345L15.5561 3.10733C15.5471 3.09837 15.5374 3.09019 15.5269 3.08275C15.4784 3.04767 15.406 3.01798 15.3333 3.01728C15.2387 3.00535 15.1406 3.01094 15.0737 3.01474C15.0495 3.01612 15.0294 3.01726 15.015 3.01726C15.015 3.01726 14.6994 3.10733 14.2485 3.24243C13.7976 1.93645 13.0311 0.765574 11.6333 0.765574H11.5431C11.1373 0.270203 10.6413 0 10.2355 0C6.98898 0 5.45591 4.05304 4.95992 6.12459C3.69739 6.5299 2.79559 6.8001 2.70541 6.8001L2.66034 6.81509C2.02699 7.02562 1.98192 7.0406 1.89379 7.70078C1.80361 8.15111 0 22.3818 0 22.3818L14.2511 25.0309L14.2485 25.0838L22.0491 23.4176L22.049 23.4172ZM13.482 3.51263C13.2523 3.59867 13.0043 3.66644 12.738 3.73921L12.738 3.73921C12.5861 3.78071 12.4283 3.82384 12.2645 3.8729V3.6027C12.2645 2.79209 12.1293 2.16162 11.9489 1.66625C12.7154 1.71128 13.2114 2.56693 13.482 3.51263ZM11.4529 4.00801C11.4529 3.0623 11.3176 2.34176 11.1373 1.84638C10.3257 2.16162 9.42385 3.0623 8.97295 4.90868C9.82966 4.63848 10.6864 4.36828 11.4529 4.14311V4.00801ZM10.1453 0.945709C10.2806 0.945709 10.4158 0.990743 10.5511 1.08081C9.51403 1.57618 8.38677 2.79209 7.93587 5.26895C7.40801 5.44468 6.88015 5.59299 6.37373 5.73527L6.37361 5.7353L6.3733 5.73539L6.37281 5.73552C6.23066 5.77546 6.0902 5.81493 5.9519 5.85439C6.53808 3.96297 7.84569 0.945709 10.1453 0.945709ZM11.6784 9.00675L10.7315 11.8439C10.7315 11.8439 9.87475 11.3935 8.88276 11.3935C7.39479 11.3935 7.30461 12.3393 7.30461 12.5644C7.30461 13.0827 7.83714 13.4733 8.47956 13.9445C9.45603 14.6607 10.6864 15.5631 10.6864 17.383C10.6864 19.7698 9.15331 21.301 7.12425 21.301C4.68938 21.301 3.42685 19.7698 3.42685 19.7698L4.05812 17.6082C4.05812 17.6082 5.36573 18.7341 6.4479 18.7341C7.16934 18.7341 7.43988 18.1936 7.43988 17.7433C7.43988 16.9919 6.90084 16.5617 6.29616 16.0792C5.52377 15.4628 4.64429 14.761 4.64429 13.1949C4.64429 10.8531 6.31263 8.60145 9.73948 8.60145C11.0471 8.60145 11.6784 9.00675 11.6784 9.00675ZM77.3297 10.0425H79.4489L79.0431 12.2492H76.9238L75.3006 20.7606H72.2345L73.8577 12.2942H72.4148L72.8657 9.9975H74.3086L74.3988 9.50213C74.6242 8.24118 75.1202 6.98024 76.1573 6.07956C76.9689 5.35902 78.0511 5.04378 79.1333 5.04378C80.2605 5.04378 80.8016 5.31399 80.8016 5.31399L80.2154 7.70078C80.2154 7.70078 79.7645 7.56567 79.2234 7.56567C78.2315 7.56567 77.6002 8.51138 77.4198 9.54716L77.3297 10.0425ZM42.024 9.81736C40.6713 9.81736 39.6343 10.4478 38.7776 11.4386H38.7325L39.9048 5.26895H36.8387L33.8627 20.8506H36.9289L37.9659 15.5367C38.3717 13.5101 39.4088 12.2942 40.3557 12.2942C41.0321 12.2942 41.3026 12.7446 41.3026 13.4201C41.3026 13.8254 41.2575 14.3658 41.1673 14.7711L39.995 20.8506H43.1062L44.3236 14.5459C44.4589 13.8704 44.5491 13.1048 44.5491 12.5644C44.504 10.8531 43.6022 9.81736 42.024 9.81736ZM31.1122 14.3207C30.3457 13.9154 29.9399 13.5552 29.9399 13.0598C29.9399 12.4293 30.481 12.024 31.3828 12.024C32.3747 12.024 33.2766 12.4293 33.2766 12.4293L33.998 10.2677C33.998 10.2677 33.3667 9.77233 31.4279 9.77233C28.7675 9.77233 26.9188 11.3035 26.9188 13.4201C26.9188 14.636 27.7756 15.5817 28.9479 16.2122C29.8948 16.7526 30.2104 17.1128 30.2104 17.6532C30.2104 18.2387 29.7595 18.689 28.8577 18.689C27.5501 18.689 26.3778 18.0135 26.3778 18.0135L25.6112 20.1751C25.6112 20.1751 26.7385 20.9407 28.6323 20.9407C31.3828 20.9407 33.3216 19.5897 33.3216 17.1579C33.2766 15.942 32.2846 15.0413 31.1122 14.3207ZM45.3156 16.7976C45.3156 13.1499 47.7505 9.81736 51.4028 9.81736C54.2435 9.81736 55.5511 11.8439 55.5511 14.0956C55.5511 17.8334 53.1162 21.0758 49.509 21.0758C46.7585 21.0758 45.3156 19.1844 45.3156 16.7976ZM49.9148 18.689C48.8778 18.689 48.4269 17.7883 48.4269 16.7075C48.4269 14.9512 49.3287 12.1141 50.997 12.1141C52.0792 12.1141 52.4399 13.0598 52.4399 13.9605C52.3948 15.8069 51.493 18.689 49.9148 18.689ZM60.1052 11.6187C60.1052 11.6187 61.2776 9.81736 63.3517 9.81736C65.5611 9.81736 66.4629 11.6187 66.4629 13.6903C66.4629 17.4281 64.1182 21.0758 60.5561 21.0758C59.3838 21.0758 58.7525 20.6705 58.7525 20.6705H58.7074L57.8507 25.1739H54.8297L56.9038 14.0505C57.1743 12.7896 57.3998 11.1233 57.5351 9.9975H60.2405L60.0601 11.6187H60.1052ZM60.4208 18.689C59.6092 18.689 59.1583 18.2387 59.1583 18.2387L59.6543 15.4016C60.015 13.5101 61.007 12.2492 62.0441 12.2492C62.991 12.2492 63.2615 13.1048 63.2615 13.9154C63.3066 15.942 62.1343 18.689 60.4208 18.689ZM69.0782 7.16037C69.0782 6.16963 69.8447 5.40405 70.8367 5.40405C71.7385 5.40405 72.3697 6.07956 72.3697 6.9352C72.3247 8.06105 71.513 8.69152 70.5661 8.69152H70.521C69.6643 8.69152 69.0782 8.06105 69.0782 7.16037ZM66.5531 20.7606H69.6192L71.6934 9.95246H68.6273L66.5531 20.7606ZM86.7535 10.0425C86.7535 10.0425 84.8597 14.8611 84.003 17.4731H83.9579C83.9128 16.6175 83.1914 10.0425 83.1914 10.0425H79.99L81.8387 19.95C81.8838 20.1751 81.8387 20.3102 81.7936 20.4453C81.4329 21.1208 80.8467 21.7963 80.1253 22.2917C79.5391 22.697 78.9078 22.9672 78.4118 23.1474L79.2685 25.7143C79.8998 25.5792 81.1623 25.0838 82.2445 24.048C83.6423 22.7421 84.9048 20.7155 86.2575 18.0135L90 10.0425H86.7535Z" fill="white"/>
</svg>
