<svg width="104" height="20" viewBox="0 0 104 20" fill="none" xmlns="http://www.w3.org/2000/svg">
<path fill-rule="evenodd" clip-rule="evenodd" d="M5.78367 7.40897L0 3.71748L5.82454 0L11.6444 3.71467L17.4647 0L23.289 3.71748L17.5053 7.40892L23.289 11.1005L17.4646 14.8181L11.6445 11.1033L5.82446 14.8181L0 11.1005L5.78367 7.40897ZM11.6444 3.72028L17.4238 7.40897L11.6445 11.0977L5.86517 7.40892L11.6444 3.72028ZM73.1893 14.4846C73.7525 15.8316 74.879 16.6689 76.605 16.6689C79.2759 16.6689 81.0201 14.703 81.0201 11.2081V10.8987C81.0201 7.40376 79.1669 5.67451 76.6777 5.65631C75.0244 5.65631 73.8615 6.40262 73.2801 7.76781V2.23885H70.6093V16.3959H72.9713L73.1893 14.4846ZM78.2766 11.2081C78.2766 13.2832 77.3136 14.3026 75.7329 14.3026C74.2249 14.3026 73.2256 13.174 73.2256 11.2081V10.9897C73.2256 9.18762 74.2613 7.96804 75.7693 7.96804C77.2228 7.96804 78.2766 9.0238 78.2766 10.9533V11.2081ZM87.5794 16.6689C84.2 16.6689 82.2741 14.8304 82.2741 11.3719V11.0807C82.2741 7.54938 84.5271 5.65631 87.5794 5.65631C90.7045 5.65631 92.8666 7.58579 92.8666 11.0807V11.3719C92.8666 14.8304 90.7408 16.6689 87.5794 16.6689ZM87.5615 14.2844C89.0843 14.2844 90.0404 13.2468 90.0404 11.3355V11.0807C90.0404 9.11481 89.0843 7.96804 87.5792 7.96804C86.0919 7.96804 85.1003 9.042 85.1003 11.0807V11.3355C85.1003 13.2286 86.0387 14.2844 87.5615 14.2844ZM96.3909 10.9533L92.412 16.3959H95.6097L97.9535 12.9192L100.37 16.3959H103.459L99.5342 10.9351L103.259 5.89294H100.134L97.9898 9.042L95.8641 5.89294H92.7208L96.3909 10.9533ZM58.9522 20V5.89294H61.1787L61.4513 7.89523C62.0145 6.54824 62.9401 5.6463 64.6661 5.6463C67.3369 5.6463 69.1397 7.57578 69.1397 11.1071V11.3983C69.1397 14.8568 67.1371 16.6589 64.6661 16.6589C62.9946 16.6589 62.1235 15.9226 61.5603 14.703V20H58.9522ZM63.7977 14.3126C65.3602 14.3126 66.418 13.2751 66.418 11.3456V11.109C66.418 9.01565 65.2875 7.9781 63.8522 7.9781C62.326 7.9781 61.4634 9.15122 61.4634 11.0989V11.2991C61.4634 13.1558 62.2896 14.3126 63.7977 14.3126ZM47.0532 11.3467C47.0532 14.8052 48.8736 16.6436 52.2525 16.6436C55.5289 16.6436 57.434 14.8052 57.434 11.3467V11.0554C57.434 7.56051 55.4412 5.63103 52.2525 5.63103C49.0639 5.63103 47.0532 7.5241 47.0532 11.0554V11.3467ZM54.6643 11.3103C54.6643 13.2215 53.8355 14.2591 52.2349 14.2591C50.6343 14.2591 49.8229 13.2033 49.8229 11.3103V11.0554C49.8229 9.01672 50.6954 7.94276 52.2523 7.94276C53.8092 7.94276 54.6643 9.08953 54.6643 11.0554V11.3103ZM42.6523 16.3959H39.9397V5.89294H42.1902L42.5354 8.3321C42.9533 6.65745 44.0253 5.80193 45.9694 5.80193H46.4708V8.58694H45.5151C43.2622 8.58694 42.6523 9.36965 42.6523 11.5904V16.3959ZM27.8549 3.51961V16.3959H32.7513C35.9854 16.3959 38.42 14.5028 38.42 10.3162V9.42426C38.42 5.25585 35.84 3.51961 32.6786 3.51961H27.8549ZM30.6166 5.76552H32.5333C34.3683 5.76552 35.622 6.9487 35.622 9.55168V10.2252C35.622 12.8282 34.4047 14.0113 32.6241 14.0113H30.6166V5.76552ZM11.6864 19.7676L5.86189 16.05L11.6864 12.3329L17.5109 16.05L11.6864 19.7676Z" fill="white"/>
</svg>
